<svg id="圖層_1" data-name="圖層 1" xmlns="http://www.w3.org/2000/svg" viewBox="0 0 155 155"><defs><style>.cls-1,.cls-3{fill:none;}.cls-1,.cls-3,.cls-4{stroke:#fff;stroke-miterlimit:10;}.cls-1,.cls-4{stroke-width:2px;}.cls-2,.cls-4{fill:#fff;}</style></defs><title>icon</title><circle class="cls-1" cx="77.5" cy="77.5" r="76.5"/><path class="cls-2" d="M90.58,101.66,76.64,112.28l-2,1.53c-.64.49,2.42,4.44,3.12,3.91L91.69,107.1l2-1.54c.64-.48-2.42-4.44-3.12-3.9Z"/><path class="cls-2" d="M105.67,80.6c2-1.66,4.79-3.09,7.43-3a5.28,5.28,0,0,1,2.64.72s.41.29.17.1c0,0,.4.33.17.13l-.07-.06c.18.17.16.15-.06-.08.34.37-.15-.2-.22-.29l-.11-.14c.14.2.11.16-.09-.14s0-.07,0,0c0-.06-.09-.28,0,0s.1.33.13.5c.26,1.55-.6,3.31-1.55,4.61a13.78,13.78,0,0,1-2.41,2.59c-.47.39.89,2,1.12,2.31s1.54,2,2,1.6c2.33-1.91,4.68-5.06,4-8.23a10.81,10.81,0,0,0-2.8-4.57,9.41,9.41,0,0,0-3.91-2.74,8.6,8.6,0,0,0-6.09.68,14.82,14.82,0,0,0-3.43,2.08c-.47.39.88,2,1.11,2.31s1.55,2,2,1.6Z"/><path class="cls-2" d="M71.61,83.61,59.31,93l-7.5,5.74a27.67,27.67,0,0,0-3,2.47c-2.52,2.56-4.75,6.59-1.58,9.58,3.65,3.43,9.8,2.72,13.91.6A33.3,33.3,0,0,0,65,108.89l7-5L86.65,93.47c.75-.53-1.46-1.12-1.66-1.16a4.33,4.33,0,0,0-3.11.32Q70.44,100.79,59,108.94a16.76,16.76,0,0,1-2.77,1.62,9.94,9.94,0,0,1-2.46.84c-.1,0-.85,0-.5.07.18,0-.5-.21-.67-.31-3.74-2.32-1.46-6.56.85-9a23.82,23.82,0,0,1,2.73-2.27l6.94-5.31L76.37,84.45c.73-.56-1.44-1.12-1.65-1.16a4.23,4.23,0,0,0-3.11.32Z"/><path class="cls-2" d="M65.92,30.31l-25,16.5c-2.73,1.8-5.32,3.24-7.32,5.88s-3.61,6.64-1,9.6S40,64.86,43.23,63.54a26.79,26.79,0,0,0,7.64-5.28,21,21,0,0,0,1.51-1.48c-.27.31-.27.18,0,0l.76-.47,14.56-9c3-1.85,6.79-5.08,10.59-4.81-.29,0,.14,0,.23.07a3.3,3.3,0,0,1,1.1.71,2.13,2.13,0,0,1,.66,1.83c-.17,1.48-1.38,2.71-2.42,3.68a18.24,18.24,0,0,1-1.59,1.32l-.54.4-.18.12-.7.47L48.37,68.7,36.84,76.36l-1,.64c-.26.17.33-.22.13-.09s-.69.45-1,.69c-2.35,1.7-4.86,4.27-5,7.33-.29,4.84,4.66,7.24,8.82,7.24a15.58,15.58,0,0,0,8.79-3L53,85.52,82.88,65.35l13.76-9.27,4.18-2.83,1.17-.79c.09-.06.62-.36.3-.2s.51-.19.68-.25a10.16,10.16,0,0,1,1.77-.44c.17,0,.7,0,.51,0-.37-.06.43.16.48.18a5.2,5.2,0,0,1,2.2,2.52,4.25,4.25,0,0,1-.9,4.53A8.8,8.8,0,0,1,105.65,60a6.06,6.06,0,0,1-.68.46c-4.11,2.71-8.15,5.54-12.22,8.31l-4.11,2.8c-.76.51,1.47,1.13,1.65,1.16a4.36,4.36,0,0,0,3.12-.32l12.22-8.32,3-2,.85-.58c.29-.2.29-.19,0,0,2.25-1.45,4.41-3.76,3.51-6.64-1.84-5.93-11.23-6.29-15.69-3.29l-8,5.42L58.48,77.76,46.21,86a43.59,43.59,0,0,1-5.64,3.56,9.93,9.93,0,0,1-2.26.79,4,4,0,0,1-.62.08c-.36,0,.08,0,.12,0,.3.15-.72-.57-.23-.12a8.29,8.29,0,0,1-1.94-2.06,5.21,5.21,0,0,1-.73-2.83c.12-3.06,2.68-5.48,5-7.15a4,4,0,0,1,.38-.25l.38-.26c.35-.22.69-.45,1-.68L46.42,74,76.06,54.32,79.62,52l.31-.21s-.53.36.17-.11a21,21,0,0,0,2.66-2.12,7.5,7.5,0,0,0,2.43-3.74c.32-1.78-1.11-3.06-2.55-3.78-3.84-1.94-8.76-1.26-12.64.24A18.87,18.87,0,0,0,67,44l-7.4,4.58c-3.87,2.39-7.93,4.61-11.66,7.21a13.65,13.65,0,0,0-1.48,1.37,38.31,38.31,0,0,1-3.23,2.74A19.61,19.61,0,0,1,39,62.35c-.51.21-1.19.31-1.45.42.35-.14-.27-.08.25,0a2.2,2.2,0,0,0,.47.08c.19-.06.14.19,0,0s-.36-.23-.49-.35c-3.93-3.43.26-9.74,3.61-11.95L68.1,32.86l2.59-1.71C71.46,30.65,69.22,30,69,30a4.41,4.41,0,0,0-3.12.32Z"/><path class="cls-3" d="M120.75,123.16l5.65-5a5,5,0,0,0,.45-7.1L98.33,78.68a4.69,4.69,0,0,0-1-.83,1.5,1.5,0,0,0-.68-.55L82.76,71.63a1.93,1.93,0,0,0-2.6,2.29L84,88.46a1.58,1.58,0,0,0,.34.61,4.53,4.53,0,0,0,.78,1.24l28.52,32.4A5,5,0,0,0,120.75,123.16Z"/><line class="cls-1" x1="122.02" y1="106.01" x2="109.25" y2="117.25"/><rect class="cls-2" x="93.65" y="79.42" width="17.01" height="34.35" transform="translate(-38.35 91.59) rotate(-41.36)"/><path class="cls-4" d="M84.36,72.43l-3.51,3.08A3.51,3.51,0,0,1,80,72.8a2,2,0,0,1,.56-1.22C81.33,71,82.9,71.24,84.36,72.43Z"/></svg>