<svg id="圖層_1" data-name="圖層 1" xmlns="http://www.w3.org/2000/svg" viewBox="0 0 155 155"><defs><style>.cls-1{fill:none;stroke:#fff;stroke-miterlimit:10;stroke-width:2px;}.cls-2{fill:#fff;}</style></defs><title>icon</title><circle class="cls-1" cx="77.5" cy="77.5" r="76.5"/><path class="cls-2" d="M89.32,94.43a29.37,29.37,0,0,1-18.75,27.39,29,29,0,0,1-32.24-9,29.79,29.79,0,0,1-2.57-33.65A28.63,28.63,0,0,1,66,65.66,29.63,29.63,0,0,1,89,89.85a29.27,29.27,0,0,1,.37,4.58c0,1.49,2.94,1,2.93-.24A31.45,31.45,0,0,0,71.58,64.83,32.6,32.6,0,0,0,36.1,74.41a31.39,31.39,0,0,0-2.88,36.15c6.86,11.39,20.46,17,33.39,14.45a32.06,32.06,0,0,0,25.23-25.8,30.09,30.09,0,0,0,.41-5C92.26,92.7,89.33,93.15,89.32,94.43Z"/><path class="cls-2" d="M103.65,83.38H49.43l1.35,1V30.13l-1.6,1.18H103.4l-1.34-1V84.56c0,1.53,2.94,1.11,2.94-.21V30.13c0-.76-.7-1-1.35-1H49.43c-.57,0-1.59.5-1.59,1.18V84.56c0,.76.7,1,1.34,1H103.4C105.07,85.53,105.62,83.38,103.65,83.38Z"/><path class="cls-2" d="M105.35,66.77,87.59,97.53,85,101.94c-.33.57.28.86.79.86h40.61c.63,0,2.45-.46,1.9-1.4L110.58,70.64,108,66.23c-.47-.82-3.3.09-2.69,1.14l17.76,30.76,2.55,4.41,1.9-1.4H87l.78.86L105.5,71.24l2.55-4.4C108.73,65.66,105.83,65.93,105.35,66.77Z"/></svg>