<svg id="圖層_1" data-name="圖層 1" xmlns="http://www.w3.org/2000/svg" viewBox="0 0 155 155"><defs><style>.cls-1{fill:none;stroke:#fff;stroke-miterlimit:10;stroke-width:2px;}</style></defs><title>icon</title><circle class="cls-1" cx="113.75" cy="79.42" r="8.25"/><circle class="cls-1" cx="101.5" cy="55.67" r="8"/><circle class="cls-1" cx="76" cy="47.17" r="7.5"/><circle class="cls-1" cx="52" cy="59.17" r="7.5"/><circle class="cls-1" cx="44" cy="83.17" r="7.5"/><circle class="cls-1" cx="77.5" cy="77.5" r="76.5"/><path class="cls-1" d="M71,111.92l-6.13-4.82A10.51,10.51,0,1,1,79.48,93.87c9.3,14,28,19.8,43,6.8,14-10,16-26,5.52-46.93C117.63,33,84.05,23.58,61.9,30.59c-22.4,7.08-44,33.12-35,61.67C30.74,104.49,37.3,111.63,45.31,119c0,0,11,10,20.79,9.69,7.12-.21,9.32-5.79,7.19-12.58A12.72,12.72,0,0,0,71,111.92Z"/></svg>