<svg id="圖層_1" data-name="圖層 1" xmlns="http://www.w3.org/2000/svg" viewBox="0 0 155 155"><defs><style>.cls-1{fill:#fff;}.cls-2{fill:none;stroke:#fff;stroke-miterlimit:10;stroke-width:2px;}</style></defs><title>MIcon</title><path class="cls-1" d="M76.73,64.36A22.87,22.87,0,0,1,97.31,79.82a24.43,24.43,0,0,1,.55,14A19,19,0,0,1,95.05,100a18.65,18.65,0,0,1-2.34,2.68c-.88.83-1.94,1.46-2.78,2.31-2.55,2.56-3.92,6.59-4.19,10.15l2.39-1H66.75l.51.2A17.18,17.18,0,0,0,63.69,105,20.12,20.12,0,0,0,61,102.66a18.77,18.77,0,0,1-2.64-2.78,18.52,18.52,0,0,1-3.11-6.33c-2.65-9.46.81-20.18,9-25.8a18.94,18.94,0,0,1,7-3,27.75,27.75,0,0,1,5.46-.36,3.48,3.48,0,0,0,2-.55c.37-.3.47-.63-.17-.63a30.55,30.55,0,0,0-12.7,2.33A24.56,24.56,0,0,0,55,75.05c-5.34,8.71-4.87,21.3,3,28.36a19.11,19.11,0,0,1,3.42,3.24,16,16,0,0,1,1.92,3.88,18.11,18.11,0,0,1,1,4.6c0,.17.43.2.51.2H86.25c.56,0,2.33-.21,2.39-1,.24-3.28,1.54-7.26,3.91-9.59.85-.85,1.9-1.48,2.78-2.31a20.63,20.63,0,0,0,2.28-2.57,18.65,18.65,0,0,0,3-6.19A24.39,24.39,0,0,0,92.91,68.5a23.61,23.61,0,0,0-14.3-5.32,3.45,3.45,0,0,0-2,.55C76.18,64,76.11,64.34,76.73,64.36Z"/><path class="cls-1" d="M86.36,122H77.57c-3.23,0-6.51.16-9.74,0-2.75-.15-4.25-4.06-2-5.87.74-.6,2-.36,2.91-.36H81.13c1.33,0,2.69-.06,4,0a3.26,3.26,0,0,1,2.93,2.36c.39,1.24,0,3.79-1.72,3.87-.58,0-1.62.18-1.92.78s.24.85.78.82c3.24-.14,7-2.71,5.71-6.4-.81-2.32-3-3-5.26-3H72.3c-1.48,0-3,0-4.45,0-2.88.06-6.07,1.89-6,5.11.11,5.3,6.78,4.33,10.32,4.33h13c.58,0,1.63-.19,1.92-.78S86.89,122,86.36,122Z"/><path class="cls-1" d="M84,128H77.45c-2.42,0-4.88.13-7.3,0-1.77-.1-3-2.77-1.43-4,.45-.37,1.24-.19,1.81-.19h9.25c1,0,2.06-.06,3.07,0a2.19,2.19,0,0,1,1.92,1.45,2.43,2.43,0,0,1,0,1.72c-.09.26-.44,1-.78,1-.64,0-1.57.18-1.91.8s.26.92.79.89c2.58-.11,5.77-2,4.8-5.07-.59-1.84-2.38-2.49-4.14-2.49H73.47c-1.1,0-2.21,0-3.32,0-2.32,0-5,1.44-5,4.06,0,4.17,5.13,3.5,7.92,3.5h9.84a2.27,2.27,0,0,0,1.91-.8C85.15,128.29,84.54,128,84,128Z"/><path class="cls-1" d="M74.08,113.77V97.67a3,3,0,0,1,.14-1.12c.1-.28.36-.47.46-.73s0,0-.08,0a7.53,7.53,0,0,0,1,0,6.28,6.28,0,0,1,2.11.12,2.31,2.31,0,0,1,1.27,2.16c.08,2.63,0,5.28,0,7.91v8.54c0,.7,2.89.22,2.89-.77v-8c0-2.83.11-5.69,0-8.52a2.87,2.87,0,0,0-1.6-2.5,5.87,5.87,0,0,0-2.76-.38c-2.22,0-5.06.07-6.07,2.47a8,8,0,0,0-.21,3v14.71c0,.7,2.9.22,2.9-.77Z"/><path class="cls-1" d="M75.05,26.56V45.75c0,.44,2.9,0,2.9-.77V25.79c0-.44-2.9,0-2.9.77Z"/><path class="cls-1" d="M39.84,37.17l12.67,11,1.81,1.57c1,.85,3.5-.58,2.23-1.68l-12.67-11-1.81-1.57c-1-.86-3.5.58-2.23,1.68Z"/><path class="cls-1" d="M25,65.55l16.59,2.71,2.35.38a2.74,2.74,0,0,0,2-.55c.44-.37.37-.77-.23-.87L29.19,64.51l-2.35-.38a2.77,2.77,0,0,0-2.05.54c-.44.38-.37.78.23.88Z"/><path class="cls-1" d="M112.9,36.15l-12.67,11-1.81,1.58c-.44.38-.34.78.24.89a2.75,2.75,0,0,0,2-.55l12.67-11,1.81-1.58c.45-.38.34-.78-.24-.9a2.8,2.8,0,0,0-2,.55Z"/><path class="cls-1" d="M129.21,63.8l-16.59,2.71-2.35.38c-.63.1-1.52.41-1.61,1.16s.77,1,1.34.92l16.58-2.71,2.36-.38c.62-.1,1.52-.41,1.6-1.16s-.77-1-1.33-.92Z"/><circle class="cls-2" cx="77.5" cy="77.5" r="76.5"/></svg>