<svg id="圖層_1" data-name="圖層 1" xmlns="http://www.w3.org/2000/svg" viewBox="0 0 155 155"><defs><style>.cls-1{fill:none;stroke:#fff;stroke-miterlimit:10;stroke-width:2px;}.cls-2{fill:#fff;}</style></defs><title>MIcon</title><circle class="cls-1" cx="77.5" cy="77.5" r="76.5"/><path class="cls-2" d="M48.27,60.66l-5.49-5.42c-.81-.81-1.63-1.6-2.42-2.43a3.34,3.34,0,0,1,0-4.81c2-2,4-4,6-6a3.34,3.34,0,0,1,5,.06c2.37,2.33,4.72,4.66,7,7,.53.54.9.68,1.61.24a32.56,32.56,0,0,1,9.44-3.91c.27-.07.53-.17.88-.28,0-3.44,0-6.86,0-10.28a6.68,6.68,0,0,1,.2-1.9,3.28,3.28,0,0,1,3.16-2.29q4.23,0,8.46,0a3.37,3.37,0,0,1,3.52,3.5c0,3.35,0,6.71,0,10.06,0,.8.28,1,1,1.29,2.9,1.07,5.76,2.25,8.6,3.48.66.29,1,.31,1.55-.23,2.52-2.57,5.09-5.11,7.64-7.66a3.39,3.39,0,0,1,5.26,0c1.89,1.9,3.78,3.79,5.66,5.7a3.38,3.38,0,0,1,0,5.11c-2.46,2.48-4.93,5-7.43,7.41-.53.53-.71.9-.24,1.62a32.71,32.71,0,0,1,4.25,10c.18.7.45.9,1.14.9,3.36,0,6.71,0,10.07,0a3.39,3.39,0,0,1,3.62,3.61v8A3.44,3.44,0,0,1,123,87.21c-3.32,0-6.64,0-10,0-.36,0-1,.28-1,.54a38.36,38.36,0,0,1-4.55,10.61l5.27,5.18c.86.85,1.73,1.71,2.57,2.58a3.37,3.37,0,0,1,0,5c-1.93,2-3.88,3.9-5.83,5.83a3.36,3.36,0,0,1-5,0q-3.59-3.54-7.11-7.13a1,1,0,0,0-1.46-.18,33,33,0,0,1-9.34,3.88c-.7.17-.91.45-.9,1.15,0,3.28,0,6.57,0,9.85a3.48,3.48,0,0,1-3.77,3.82H73.94a3.42,3.42,0,0,1-3.66-3.69c0-3.56,0-7.13,0-10.76a7.06,7.06,0,0,0-.8-.29,33.76,33.76,0,0,1-10.19-4.33,1,1,0,0,0-1.52.19c-2.06,2.13-4.17,4.21-6.27,6.3a3.43,3.43,0,0,1-5.27,0l-5.61-5.6a3.39,3.39,0,0,1,0-5.19c2.41-2.39,4.84-4.74,7.07-6.92L43.28,87.17H41.6c-2.89,0-5.79,0-8.68,0a3.45,3.45,0,0,1-3.78-3.8q0-3.9,0-7.82a3.4,3.4,0,0,1,3.69-3.74h9.85c.51,0,.94.05,1.11-.66A34.59,34.59,0,0,1,48.27,60.66Zm69.45,12.83c-1.9,0-3.79,0-5.68,0a1.25,1.25,0,0,1-1.48-1.15A31.39,31.39,0,0,0,105.74,61a1.38,1.38,0,0,1,.26-2.1c2.73-2.67,5.42-5.39,8.12-8.09,1.13-1.14,1.13-1.75,0-2.89-1.85-1.87-3.72-3.74-5.59-5.61-1.2-1.19-1.78-1.19-3,0-2.81,2.8-5.62,5.6-8.4,8.42a1.29,1.29,0,0,1-1.87.26,30.81,30.81,0,0,0-10.16-4.1c-.91-.18-1.21-.64-1.2-1.55.05-3.68,0-7.35,0-11,0-1.46-.47-1.94-1.9-1.94H74c-1.66,0-2.09.42-2.09,2.07,0,3.61,0,7.22,0,10.82,0,1-.31,1.41-1.27,1.6A30.91,30.91,0,0,0,60,51.27a1.37,1.37,0,0,1-2-.22c-2.52-2.58-5.1-5.11-7.65-7.65-1.19-1.19-1.79-1.21-3,0L41.75,49c-1.17,1.18-1.16,1.75,0,2.95,2.57,2.58,5.13,5.16,7.73,7.72a1.24,1.24,0,0,1,.2,1.85,31.2,31.2,0,0,0-4.46,10.7c-.22,1-.7,1.32-1.69,1.31-3.56,0-7.13,0-10.7,0-1.67,0-2.06.41-2.06,2.1,0,2.61,0,5.21,0,7.82,0,1.7.43,2.12,2.17,2.13,3.61,0,7.21,0,10.82,0,.8,0,1.22.23,1.4,1.09a30.73,30.73,0,0,0,4.06,10.17,1.39,1.39,0,0,1-.21,2c-2.45,2.4-4.85,4.85-7.27,7.29-1.12,1.13-1.12,1.72,0,2.87q2.76,2.78,5.53,5.54c1.25,1.25,1.83,1.24,3.11,0,2.33-2.33,4.65-4.64,7-7,.55-.55,1.06-.79,1.77-.29a31.4,31.4,0,0,0,11.51,5,1.37,1.37,0,0,1,1.28,1.6c-.06,3.64,0,7.28,0,10.93,0,1.52.46,2,2,2q4,0,8,0c1.56,0,2-.47,2-2,0-3.68,0-7.36,0-11a1.21,1.21,0,0,1,1.1-1.4A32.34,32.34,0,0,0,96,107.64a1.23,1.23,0,0,1,1.78.24c2.54,2.61,5.13,5.17,7.7,7.75,1.19,1.18,1.8,1.18,3,0,1.85-1.83,3.69-3.68,5.53-5.53,1.25-1.25,1.25-1.79,0-3-2.52-2.53-5-5.07-7.58-7.56a1.39,1.39,0,0,1-.27-2.1,30.83,30.83,0,0,0,4.4-10.61,1.37,1.37,0,0,1,1.59-1.29c3.71,0,7.43,0,11.14,0,1.37,0,1.86-.5,1.87-1.88,0-2.79,0-5.57,0-8.36,0-1.33-.49-1.81-1.8-1.82Z"/><path class="cls-2" d="M92.34,79.54A14.46,14.46,0,1,1,77.81,65,14.62,14.62,0,0,1,92.34,79.54Zm-1.64,0A12.81,12.81,0,1,0,77.84,92.35,12.68,12.68,0,0,0,90.7,79.54Z"/></svg>