<svg id="圖層_1" data-name="圖層 1" xmlns="http://www.w3.org/2000/svg" viewBox="0 0 30.95 30.95"><defs><style>.cls-1,.cls-2,.cls-3{fill:none;stroke:#fff;stroke-miterlimit:10;}.cls-1,.cls-2{stroke-linecap:round;}.cls-2,.cls-3{stroke-width:0.7px;}</style></defs><title>iconsvg</title><path class="cls-1" d="M15.48,30.45a15,15,0,1,0-15-15A15,15,0,0,0,15.48,30.45Z"/><path class="cls-2" d="M17.74,11c0,.12-.25.22-.56.22H13.9c-.3,0-.55-.1-.55-.22V9.24c0-.12.25-.22.55-.22h3.28c.31,0,.56.1.56.22ZM16.6,17a.28.28,0,0,1-.28.28H14.63a.29.29,0,0,1-.28-.28V14.84a.29.29,0,0,1,.28-.28h1.69a.28.28,0,0,1,.28.28Zm6.5,3.55a1.38,1.38,0,0,1-1.42,1.35H9.27a1.39,1.39,0,0,1-1.42-1.35v-8a1.39,1.39,0,0,1,1.42-1.36H21.68a1.39,1.39,0,0,1,1.42,1.36Z"/><path class="cls-3" d="M23.39,15.25H21.81l-.82.93H16.83M7.6,15.25H9.18l.77.93h4.17"/></svg>