<svg id="圖層_1" data-name="圖層 1" xmlns="http://www.w3.org/2000/svg" viewBox="0 0 30.95 30.95"><defs><style>.cls-1,.cls-2{fill:none;stroke:#fff;stroke-linecap:round;stroke-miterlimit:10;}.cls-2{stroke-width:0.7px;}</style></defs><title>iconsvg</title><path class="cls-1" d="M15.48,30.45a15,15,0,1,0-15-15A15,15,0,0,0,15.48,30.45Z"/><path class="cls-2" d="M15.47,11.36a4.11,4.11,0,1,0,4.12,4.13A4.11,4.11,0,0,0,15.47,11.36ZM12.4,21.2l-.87.88c-.22.21-.36.21-.58,0L8.85,20c-.18-.19-.19-.35,0-.53l.83-.83c.07-.07.07-.11,0-.2-.14-.31-.27-.62-.39-.94,0-.09-.07-.13-.18-.13H8c-.25,0-.37-.11-.37-.36V14c0-.26.11-.37.38-.37H9.14a.15.15,0,0,0,.17-.12c.13-.32.26-.65.4-1a.13.13,0,0,0,0-.18l-.83-.83a.32.32,0,0,1,0-.52L11,8.84a.32.32,0,0,1,.51,0l.83.83a.15.15,0,0,0,.2,0c.31-.14.63-.28,1-.4a.16.16,0,0,0,.13-.19c0-.38,0-.76,0-1.14s.11-.37.36-.37h3c.25,0,.36.12.36.37s0,.78,0,1.16c0,.1,0,.13.12.16.33.13.65.26,1,.41a.14.14,0,0,0,.18,0l.83-.83a.32.32,0,0,1,.52,0L22.1,11a.33.33,0,0,1,0,.54l-.79.78a.38.38,0,0,1-.11.07l.46,1.16a.17.17,0,0,0,.14.07h1.14c.29,0,.4.11.41.4v3c0,.28-.11.39-.4.39H21.81c-.1,0-.14,0-.18.13-.12.31-.25.63-.38.94-.05.09-.05.14,0,.21l.82.81a.32.32,0,0,1,0,.53L20,22.1a.32.32,0,0,1-.52,0l-.84-.85a.14.14,0,0,0-.18,0c-.32.14-.64.28-1,.4a.16.16,0,0,0-.12.18c0,.38,0,.77,0,1.16s-.11.37-.37.37c-1,0-2,0-3,0-.25,0-.36-.11-.36-.37s0-.77,0-1.15a.16.16,0,0,0-.13-.19C13.12,21.5,12.77,21.35,12.4,21.2Z"/></svg>