<svg id="圖層_1" data-name="圖層 1" xmlns="http://www.w3.org/2000/svg" viewBox="0 0 31.65 31.65"><defs><style>.cls-1,.cls-3{fill:none;stroke:#fff;}.cls-1{stroke-width:1.7px;}.cls-2{fill:#fff;}.cls-3{stroke-linecap:round;stroke-linejoin:round;stroke-width:0.7px;}</style></defs><title>iconsvg</title><path class="cls-1" d="M15.83,30.8a15,15,0,1,0-15-15A15,15,0,0,0,15.83,30.8Z"/><path class="cls-2" d="M15,17.86a.81.81,0,0,0,0-.15,1,1,0,0,0,0-.17.32.32,0,0,1,.1-.25.37.37,0,0,1,.27-.12.42.42,0,0,1,.31.16.41.41,0,0,1,.06.3.39.39,0,0,1-.34.3.88.88,0,0,0-.32-.07h0m3.67-7.59a.69.69,0,0,0-.47.18l-.12.11-.18.16a5.11,5.11,0,0,1-1.47.94,7.25,7.25,0,0,1-2.22.52,17.42,17.42,0,0,1-1.88.09h-.2a.69.69,0,0,0-.67.52s0,.08,0,.08l-.07.3-.15.68c-.3,1.23-.65,2.45-.93,3.38-.49,1.63-1,3.29-1.61,5.07l-.15.43a.72.72,0,0,0,.18.74l0,0a.7.7,0,0,0,.45.17.7.7,0,0,0,.11.37.74.74,0,0,0,.6.33l.18,0,.09,0L11,24l2-.65c1.66-.54,3-.94,4.26-1.28L19,21.67l.61-.15a2.61,2.61,0,0,1,.27-.06l.17,0a.7.7,0,0,0,.55-.68l0-.55c0-.37,0-.74,0-1.11a9.78,9.78,0,0,1,.24-1.71,5.42,5.42,0,0,1,1.32-2.48l.12-.13.08-.08a.71.71,0,0,0,0-1l-3.23-3.23a.69.69,0,0,0-.5-.2m0,.7,3.24,3.23c-.07.06-.13.14-.2.21a6.15,6.15,0,0,0-1.49,2.8A10.21,10.21,0,0,0,19.92,19c0,.54,0,1.09-.06,1.64v.06l-.46.1c-.76.19-1.53.37-2.29.58-1.45.39-2.87.83-4.3,1.29l-2.89.95-.06,0v0a.1.1,0,0,0,.05,0l5-5s0-.05.07-.05h0a.65.65,0,0,0,.29.06,1.1,1.1,0,0,0,1-.85,1.09,1.09,0,0,0-.94-1.3h-.12a1.08,1.08,0,0,0-1.07,1.08,1.28,1.28,0,0,0,0,.27.19.19,0,0,1,0,.07l0,0-5,5a.16.16,0,0,0,0,.07l0,0,.15-.44c.57-1.69,1.11-3.38,1.62-5.09.34-1.13.66-2.27.94-3.41.08-.33.15-.66.22-1V13h.2a18.18,18.18,0,0,0,2-.09,8.52,8.52,0,0,0,2.43-.57,6.17,6.17,0,0,0,1.66-1.06l.3-.28"/><path class="cls-2" d="M24.13,3.11h0a.75.75,0,0,0-.51.24l-1.7,2L18.49,9.25a.7.7,0,0,0,0,.95l1.34,1.36,2.71,2.72a.69.69,0,0,0,.5.21.7.7,0,0,0,.45-.17L28.8,9.86l.67-.58a.68.68,0,0,0,.25-.5.68.68,0,0,0-.2-.52L24.63,3.32a.71.71,0,0,0-.5-.21m0,.7L29,8.75l-5.94,5L19,9.71l5.11-5.9"/><path class="cls-3" d="M18.53,22.77h5.94m-13.13,1.5H21.72"/></svg>