<svg id="圖層_1" data-name="圖層 1" xmlns="http://www.w3.org/2000/svg" viewBox="0 0 30.95 30.95"><defs><style>.cls-1,.cls-2{fill:none;stroke:#fff;stroke-linecap:round;stroke-miterlimit:10;}.cls-2{stroke-width:0.7px;}</style></defs><title>iconsvg</title><path class="cls-1" d="M15.48,30.45a15,15,0,1,0-15-15A15,15,0,0,0,15.48,30.45Z"/><path class="cls-2" d="M12.89,18.73l.35-1.48a1.76,1.76,0,0,1,.1-.41c.22-.48,0-.77-.35-1.06a17.45,17.45,0,0,1-1.39-1.19.42.42,0,0,1-.13-.33c0-.08.18-.16.29-.17.76-.08,1.53-.14,2.3-.2a.28.28,0,0,0,.27-.19c.28-.7.56-1.39.86-2.08a.5.5,0,0,1,.28-.26c.1,0,.24.15.28.26.3.67.58,1.36.86,2.05a.32.32,0,0,0,.31.23c.74,0,1.47.11,2.21.18a1.22,1.22,0,0,1,.37.2,1.42,1.42,0,0,1-.21.36c-.53.48-1.07.95-1.63,1.4a.37.37,0,0,0-.14.45c.18.69.35,1.39.5,2.08A1.26,1.26,0,0,1,18,19a1.3,1.3,0,0,1-.41-.07c-.63-.37-1.25-.75-1.86-1.13a.33.33,0,0,0-.43,0c-.63.4-1.27.78-1.92,1.17C13.09,19.11,12.89,19,12.89,18.73Zm9.17-3.07a6.59,6.59,0,1,0-6.61,6.57A6.61,6.61,0,0,0,22.06,15.66Zm-2.75,8a3.55,3.55,0,0,0-.8,0,3.45,3.45,0,0,0-.94.36c-.33.19-.62.45-.93.67a1.91,1.91,0,0,1-2.32,0l-.91-.67a1.94,1.94,0,0,0-1.23-.39H11.06a1.94,1.94,0,0,1-1.87-1.35l-.36-1.12a1.91,1.91,0,0,0-.73-1l-.95-.69a1.91,1.91,0,0,1-.7-2.15l.36-1.12a1.94,1.94,0,0,0,0-1.26c-.12-.37-.25-.74-.36-1.12a1.91,1.91,0,0,1,.7-2.14l1-.69a1.87,1.87,0,0,0,.72-1L9.18,9A1.92,1.92,0,0,1,11.1,7.61h1.07a2,2,0,0,0,1.25-.4l.91-.67a1.92,1.92,0,0,1,2.3,0c.31.23.61.46.93.68a2,2,0,0,0,1.2.39h1.18a1.92,1.92,0,0,1,1.81,1.31c.13.38.25.76.37,1.14a1.87,1.87,0,0,0,.72,1l1,.69a1.91,1.91,0,0,1,.7,2.14c-.11.38-.24.75-.36,1.12a1.94,1.94,0,0,0,0,1.26l.36,1.12a1.92,1.92,0,0,1-.69,2.15l-1,.69a2,2,0,0,0-.73,1c-.12.38-.24.77-.37,1.15a1.92,1.92,0,0,1-1.83,1.32h-.61Z"/></svg>