<svg id="圖層_1" data-name="圖層 1" xmlns="http://www.w3.org/2000/svg" viewBox="0 0 31.65 31.65"><defs><style>.cls-1,.cls-2,.cls-3,.cls-4{fill:none;stroke:#fff;}.cls-1{stroke-width:1.7px;}.cls-3,.cls-4{stroke-width:0.7px;}.cls-4{stroke-linecap:round;}</style></defs><title>iconsvg</title><path class="cls-1" d="M15.83,30.8a15,15,0,1,0-15-15A15,15,0,0,0,15.83,30.8Z"/><path class="cls-2" d="M10.94,12a1.39,1.39,0,0,0-1.42,1.42v6.88a1.39,1.39,0,0,0,1.42,1.42H21.71a1.39,1.39,0,0,0,1.42-1.42V13.39A1.39,1.39,0,0,0,21.71,12Z"/><path class="cls-3" d="M10.53,11.75c0-2.7,1.42-2.7,1.42-2.7H13.8s.66-.07.83.8h6.52s1,.28,1,2.08"/><line class="cls-4" x1="11.19" y1="14.48" x2="21.39" y2="14.48"/></svg>