<?xml version="1.0" encoding="utf-8"?>
<!-- Generator: Adobe Illustrator 23.1.1, SVG Export Plug-In . SVG Version: 6.00 Build 0)  -->
<svg version="1.1" id="圖層_1" xmlns="http://www.w3.org/2000/svg" xmlns:xlink="http://www.w3.org/1999/xlink" x="0px" y="0px"
	 viewBox="0 0 158 166.41" style="enable-background:new 0 0 158 166.41;" xml:space="preserve">
<style type="text/css">
	.st0{fill:none;stroke:#F2CFBD;stroke-width:9;}
</style>
<path class="st0" d="M45.37,61.13c0.81,0.2,1.49-0.61,1.15-1.38C42.58,50.9,27,22.76,50.58,8.45c23.93-14.53,40.99,15.36,44.59,20.1
	c0.35,0.46,1.02,0.54,1.45,0.15c3.53-3.12,18.36-14.7,35.39-6.09c17.64,8.92,9.94,48.66-4.79,56.98c-0.83,0.47-0.57,1.74,0.38,1.85
	c8.31,0.97,23.56,4.76,25.47,19.42c2.53,19.35-5.51,44.97-41.01,33.03c-2.71-0.91-5.6,0.67-6.27,3.44
	c-2.09,8.64-8.44,24.57-26.93,24.57c0,0-40.16-7.82-32.11-36.35c0.2-0.71-0.41-1.38-1.13-1.25c-7.97,1.43-42.66,5.48-41.08-32.97
	C6.1,53.78,37.03,59.03,45.37,61.13z"/>
</svg>
