<svg id="圖層_1" data-name="圖層 1" xmlns="http://www.w3.org/2000/svg" viewBox="0 0 195.03 205.5"><defs><style>.cls-1{fill:#fff;}</style></defs><title>icon</title><path class="cls-1" d="M190,102.76a102,102,0,0,1-17.2,56.81,93.59,93.59,0,0,1-43.37,35,88.87,88.87,0,0,1-57.38,2.23,93,93,0,0,1-46-31.85A100.54,100.54,0,0,1,5.27,110.31,102.67,102.67,0,0,1,18.34,52.15a95.37,95.37,0,0,1,41.23-38.6,88.43,88.43,0,0,1,56.35-6.63,91.86,91.86,0,0,1,48.57,28.39A100.32,100.32,0,0,1,189,87.78a102.88,102.88,0,0,1,1.06,15c0,3.22,5,3.22,5,0A106.72,106.72,0,0,0,177,43.15a99.37,99.37,0,0,0-46.17-37,93.37,93.37,0,0,0-60-2.23,97.56,97.56,0,0,0-48.4,33.4A107.26,107.26,0,0,0,14,155.89,100,100,0,0,0,57.2,196.36a94.11,94.11,0,0,0,60.05,7.06A96.45,96.45,0,0,0,168,173.75a104.93,104.93,0,0,0,25.81-55,112.25,112.25,0,0,0,1.19-16C195,99.54,190,99.54,190,102.76Z"/><path class="cls-1" d="M98.56,102.28,85.5,94.12,64.54,81l-4.82-3-.27.49,13.19-8.3L93.68,57l4.85-3.05-2.47.47,13.07,8.19,21,13.13,4.81,3,.27-.49L122,86.53l-21,13.18-4.85,3c-.49.31-.35.5.15.56a3.64,3.64,0,0,0,2.05-.55l13.19-8.26,21-13.18,4.85-3c.11-.07.53-.33.27-.49l-13.06-8.18-21-13.14-4.81-3c-.59-.37-2,.15-2.47.47L83.14,62.22l-21,13.24-4.85,3.05c-.11.06-.54.32-.27.48l13.06,8.16,21,13.08,4.81,3c.47.29,1.4,0,1.86-.2C97.82,103,99,102.53,98.56,102.28Z"/><path class="cls-1" d="M55.19,78.55v48.81c0,.35,0,.73,0,1.08a1.7,1.7,0,0,0,0,.39c.2.6,1.1.91,1.61,1.22l2.34,1.39,37.24,22.2a1.81,1.81,0,0,0,1.76,0l33.26-20,3.84-2.31,2.13-1.28c.53-.33,1.32-.61,1.59-1.22a6.63,6.63,0,0,0,.08-2.27V78.17c0-1.53-2.94-1.12-2.94.21v50.4l.83-1L96.87,151.92l1.76,0L57.77,127.59l.36.74v-50c0-1.53-2.94-1.12-2.94.21Z"/><path class="cls-1" d="M96.06,102.91v49.44c0,1.37,2.91.83,2.91-.29V102.61c0-1.36-2.91-.82-2.91.3Z"/></svg>