<svg id="圖層_1" data-name="圖層 1" xmlns="http://www.w3.org/2000/svg" viewBox="0 0 194.03 204.55"><defs><style>.cls-1{fill:none;stroke:#fff;stroke-width:4px;}.cls-2{fill:#fff;}</style></defs><title>icon</title><ellipse class="cls-1" cx="97.02" cy="102.27" rx="95.02" ry="100.27"/><path class="cls-2" d="M118.94,130.33l9.12-18.21c1.54-3.07,3.47-6,2.12-9.59a31.36,31.36,0,0,0-2-3.72L118.15,80.49,105.57,57.62,98.93,45.56l-.55-1c-.48-.88-2.81-1.91-3.45-.71l-5.74,10.7L77.11,77.08,66.47,96.91c-.75,1.39-1.51,2.78-2.24,4.18a7.4,7.4,0,0,0-.3,6.3,25.7,25.7,0,0,0,1.17,2.35l10.07,19.58.27.51A2.82,2.82,0,0,0,77.73,131h0l-2.39-1.49c0,1.63-.11,3.33.06,5,.35,3.24,2.85,5.75,5.76,6.93s6.15.77,9.14.76l13.3-.07c2.65,0,5.4.18,8-.08a8,8,0,0,0,7.22-6.25c.33-1.89,0-3.84.1-5.74.11-1.24-3.45-2.29-3.58-.72-.11,1.4.05,2.85,0,4.26a6.4,6.4,0,0,1-4.46,6,8.9,8.9,0,0,1-2.86.28l-4.27,0c-6.61,0-13.23.17-19.85.09A5,5,0,0,1,79,135.56a35.89,35.89,0,0,1-.11-5.29c0-.92-1.72-1.49-2.39-1.49h0L78.82,130l-9.23-18c-1.58-3.06-3.69-6-1.9-9.55.52-1,1.09-2,1.63-3l10-18.61,12.17-22.7,6.44-12,.55-1L95,44.41q2.88,5.25,5.78,10.5L112.93,77l10.93,19.88c.8,1.46,1.62,2.91,2.41,4.37a6.2,6.2,0,0,1,.24,5.64c-.31.69-.68,1.37-1,2l-9.82,19.61-.26.52C114.83,130.23,118.3,131.61,118.94,130.33Z"/><path class="cls-2" d="M113,201.94c2.9-.09,6.24-1.28,6.66-4.53.35-2.69.58-5.4.78-8.11a162.53,162.53,0,0,0,0-24,144,144,0,0,0-2.31-17.79,6.14,6.14,0,0,0-1.31-3.14,8.35,8.35,0,0,0-4.26-2.4,18.86,18.86,0,0,0-4.63-.29l-18.86.1c-3.57,0-9-.7-10.94,3.09a10.57,10.57,0,0,0-.7,3c-.2,1.13-.38,2.26-.55,3.39q-.66,4.51-1.05,9.06a162.51,162.51,0,0,0-.36,24.27c.19,3.13.46,6.27.81,9.39a27,27,0,0,0,.47,3.47,5.66,5.66,0,0,0,2.76,3.33,10.16,10.16,0,0,0,4.94,1.31c.71,0,1.44-.37,1.15-1.17a2.63,2.63,0,0,0-2.26-1.27c-1.13,0-2.43-.27-2.94-1.41a10.68,10.68,0,0,1-.47-3.1c-.33-2.79-.58-5.6-.78-8.4a162.4,162.4,0,0,1,0-22.06A146.86,146.86,0,0,1,81,148.61a7.31,7.31,0,0,1,.68-2.53,4.66,4.66,0,0,1,3.79-1.81c1-.05,2,0,3,0l16.8-.08,5,0c1.29,0,2.88-.14,3.75,1a6.22,6.22,0,0,1,.72,2.53c.2,1,.37,2,.54,3.07.45,2.73.8,5.48,1.1,8.23a162.46,162.46,0,0,1,.75,24.95c-.15,3.32-.4,6.64-.74,9.94a11.78,11.78,0,0,1-.51,3.46c-.67,1.48-2.47,2.12-4,2.16-.7,0-1.45.35-1.15,1.17a2.61,2.61,0,0,0,2.26,1.27Z"/><path class="cls-2" d="M99,104.83l-.11-20.2L98.7,52.68l0-7.42c0-1.26-2.9-.66-2.9.34l.11,20.21L96,97.75l0,7.42c0,1.26,2.91.67,2.91-.34Z"/><ellipse class="cls-2" cx="97.4" cy="104.93" rx="5.78" ry="5.48"/></svg>