<svg id="圖層_1" data-name="圖層 1" xmlns="http://www.w3.org/2000/svg" viewBox="0 0 233.65 217.08"><defs><style>.cls-1{fill:none;}.cls-1,.cls-3{stroke:#fff;stroke-miterlimit:10;stroke-width:2px;}.cls-2,.cls-3{fill:#fff;}.cls-4{fill:#1a5152;}.cls-5{fill:#185051;}.cls-6{fill:#205555;}</style></defs><title>icon</title><path class="cls-1" d="M220.5,212.36l4.55-9.05a6.76,6.76,0,0,0-3-9.08l-51.83-26.09a6,6,0,0,0-1.61-.54,2,2,0,0,0-1.13-.36l-20.22-.08a2.6,2.6,0,0,0-2.09,4.16l12.1,16.2a2.17,2.17,0,0,0,.73.6,6.6,6.6,0,0,0,1.59,1.15l51.82,26.09A6.76,6.76,0,0,0,220.5,212.36Z"/><line class="cls-1" x1="213.49" y1="190.34" x2="203.2" y2="210.77"/><rect class="cls-2" x="172.94" y="164.98" width="22.87" height="46.18" transform="translate(-66.52 268.16) rotate(-63.27)"/><path class="cls-3" d="M149.67,167.36l-2.82,5.6a4.72,4.72,0,0,1-2.39-3,2.66,2.66,0,0,1,.08-1.81C145.16,167,147.26,166.61,149.67,167.36Z"/><rect class="cls-4" x="54.08" y="1.18" width="110.49" height="110.49"/><path class="cls-2" d="M166.45,110.51H60.51a33.23,33.23,0,0,0-4.35,0H56l1,.37V4.94c0-1.43.11-2.92,0-4.35V.4L52.19,2.33h106a33.23,33.23,0,0,0,4.35,0,1.21,1.21,0,0,1,.19,0l-1-.38v108.8a6.27,6.27,0,0,0,0,1.5,1.2,1.2,0,0,1,0,.19c0,.85,5.79.06,5.79-1.56V2.09a6.27,6.27,0,0,0,0-1.5,1.21,1.21,0,0,1,0-.19c0-.33-.89-.38-1-.38H69.6c-4.48,0-9,0-13.44,0H56A8.44,8.44,0,0,0,52.76.7c-.49.2-1.58.58-1.58,1.25v108.8a6.84,6.84,0,0,0,0,1.5.6.6,0,0,1,0,.19c0,.33.9.37,1,.37h96.86c4.48,0,9,0,13.44,0h.19a7.88,7.88,0,0,0,4.1-1.1C167.65,111.16,167.62,110.51,166.45,110.51Z"/><polygon class="cls-5" points="189.36 67.54 147.99 139.2 230.73 139.2 189.36 67.54"/><path class="cls-2" d="M186.62,67.33l-14,24.23-22.28,38.6-5.1,8.83c-.67,1.16.58,2.11,1.68,2.11h82.74c1.49,0,4.94-1,3.73-3.12l-14-24.23L197.13,75.16,192,66.33c-.67-1.16-2.95-.7-3.89-.27s-2.14,1.5-1.45,2.7l14,24.23L223,131.59l5.1,8.82,3.73-3.12H149.05l1.68,2.12,14-24.23L187,76.58l5.1-8.82c.7-1.22-.62-2-1.68-2.12A4.15,4.15,0,0,0,186.62,67.33Z"/><circle class="cls-6" cx="64.66" cy="127.67" r="61.72"/><path class="cls-2" d="M123.44,127.86a60.06,60.06,0,0,1-10.84,34.53A58.77,58.77,0,0,1,85.19,183.6a58.22,58.22,0,0,1-36,1.35A60,60,0,0,1,6.06,132.07a60.52,60.52,0,0,1,8.4-35.69,58.69,58.69,0,0,1,25.82-23,57.71,57.71,0,0,1,17-4.77A58.67,58.67,0,0,1,106.8,86.5a60.73,60.73,0,0,1,15.93,32.27,60.1,60.1,0,0,1,.71,9.09c0,3.14,5.89,2.36,5.88-.39A63.49,63.49,0,0,0,87.4,67.62a65.54,65.54,0,0,0-72.68,19.7A63.49,63.49,0,0,0,37.62,186a65.57,65.57,0,0,0,73.82-14.43,63.35,63.35,0,0,0,17.88-44.07C129.33,124.34,123.44,125.11,123.44,127.86Z"/></svg>