<svg id="圖層_1" data-name="圖層 1" xmlns="http://www.w3.org/2000/svg" viewBox="0 0 194.03 204.55"><defs><style>.cls-1{fill:none;stroke:#fff;stroke-width:4px;}.cls-2{fill:#fff;}</style></defs><title>icon</title><ellipse class="cls-1" cx="97.02" cy="102.27" rx="95.02" ry="100.27"/><path class="cls-2" d="M137.71,51.07,118.86,83.39l-2.64,4.52c-.29.5,1,.4,1.19.37a2.38,2.38,0,0,0,1.68-.84l18.85-32.32,2.64-4.52c.29-.5-1-.4-1.19-.37a2.38,2.38,0,0,0-1.68.84Z"/><path class="cls-2" d="M110.42,82l7.5-12.87,11.91-20.41L132.6,44c.3-.51-1-.43-1.19-.4a2.29,2.29,0,0,0-1.68.86L122.22,57.3,110.31,77.71l-2.77,4.74c-.29.51,1,.43,1.2.4a2.31,2.31,0,0,0,1.68-.86Z"/><path class="cls-2" d="M120.55,104.34a15.47,15.47,0,0,0-3.45-18.92,16.37,16.37,0,0,0-19.66-1,15.89,15.89,0,0,0-6.76,10.88l2.3-1.1-.07,0a1.74,1.74,0,0,0-2.3,1.11c-.31,2.59-.5,5.21-.63,7.82-.2,4.3-.36,8.87.63,13.1a6.9,6.9,0,0,0,2.09,4c1.3,1,3.07.85,4.57.52,4.19-.93,8.11-3.61,11.61-6,2.71-1.83,5.36-3.78,7.89-5.85.44-.36.79-1.17.14-1.55h0l-.13,1.55a17.32,17.32,0,0,0,3.79-4.6c.37-.65-.33-1.19-.9-1.28a1.86,1.86,0,0,0-1.88.9,13.6,13.6,0,0,1-3,3.58c-.43.38-.8,1.17-.14,1.56h0l.14-1.56c-1.85,1.52-3.78,3-5.73,4.34a49.75,49.75,0,0,1-10.68,6.3,10.74,10.74,0,0,1-2,.58,2.05,2.05,0,0,1-1.23-.07,1.47,1.47,0,0,1-.36-.25,3.63,3.63,0,0,1-.53-.75,7.85,7.85,0,0,1-.71-2c-1-3.89-.84-8.1-.68-12.07.12-2.86.32-5.72.66-8.56l-2.29,1.11.07,0a1.75,1.75,0,0,0,2.3-1.1,13,13,0,0,1,12.72-11.34,13.49,13.49,0,0,1,12.74,10.35,13.78,13.78,0,0,1-1.32,9.79C117,105.43,119.92,105.52,120.55,104.34Z"/><path class="cls-2" d="M91.49,93.81c2.59,1.66,1.25,5.39,4,7a5.7,5.7,0,0,0,4.31.28c1.39-.35,2.35-1.06,3.73-.26,2.66,1.56,1.25,5.41,4,7a5.45,5.45,0,0,0,3.93.37c1.52-.32,2.6-1.14,4.11-.34.5.26,1.37,0,1.86-.21.12-.05,1.28-.53.88-.75a5.79,5.79,0,0,0-4.31-.28c-1.36.34-2.39,1-3.73.25-2.67-1.55-1.26-5.39-4-7a5.45,5.45,0,0,0-3.93-.37c-1.48.31-2.66,1.2-4.11.34s-1.66-2.12-1.93-3.53a4.73,4.73,0,0,0-2-3.45c-.45-.29-1.4.05-1.85.21-.14,0-1.27.5-.88.75Z"/><path class="cls-2" d="M94.86,81.43a42.69,42.69,0,0,0,.45-16.51A21.59,21.59,0,0,0,90,53.6c-3-3.17-7.86-5.43-12.31-5.06A8.83,8.83,0,0,0,69.8,54.2c-1.28,3.39-1.21,7.29-.75,10.83.51,3.94,1.93,7.4,3.4,11.06,1,2.62,2.07,5.26,2.88,8a18.31,18.31,0,0,1,1.14,6.66,3.93,3.93,0,0,1-.24,1.13,6.34,6.34,0,0,1-.53.83s.72-.14.76-.19,0,0-.08,0a4.92,4.92,0,0,0-.71-.17,15.51,15.51,0,0,1-3.76-2.22,101.22,101.22,0,0,0-10.75-7.26,26.87,26.87,0,0,0-14.37-3.45c-5.29.33-11.52,2.33-15.17,6.37-5.77,6.39-1,15.44,5.64,19,4.47,2.39,9.81,1.67,14.66,1.3,3-.22,6-.55,8.94-.53,1.92,0,4.37.06,5.85,1.48a2.79,2.79,0,0,1,.47,3.71c-.93,1.11-2.58,1.61-3.89,2.09-4.36,1.59-8.89,2.8-12.9,5.21-3.82,2.3-7.66,6.65-6.88,11.47.81,5,6.63,6.63,10.94,6.8,6.14.23,11.47-2.26,17-4.46,1.24-.5,2.17-.76,2.24,1.05a30.87,30.87,0,0,1-.57,5A60,60,0,0,0,72.57,151c.34,3.47,1.39,7.74,5,9.25,3.91,1.65,8.85.08,12-2.54,3.46-2.92,5.63-7.06,8.79-10.26a14.21,14.21,0,0,1,5.83-3.86A11.84,11.84,0,0,1,112,144c4.27,1.72,7.36,5.4,11.59,7.18a18.19,18.19,0,0,0,9.93,1.26,12.23,12.23,0,0,0,9.61-8.1,12.36,12.36,0,0,0,1-6.42,9.28,9.28,0,0,0-2.12-4.26c-2.2-2.64-5.28-4.41-8.24-6.07-1.3-.73-2.63-1.42-3.89-2.23-.72-.46-1.77-1.06-2.09-1.92s.3-1.32.94-1.69a26.2,26.2,0,0,1,6.62-2.39c5.43-1.45,11-2.37,16.3-4.38,4.13-1.58,8-3.85,9.83-8a13.34,13.34,0,0,0,.29-10.3c-1.6-3.9-5.15-6.37-9.07-7.57-5.56-1.69-12.17-1.4-17.77,0-3,.75-6.6,2.12-8.16,5a4.89,4.89,0,0,0-.6,3.11c.11.57,3-.11,2.89-.78a4.57,4.57,0,0,1,.71-3.11c1.73-2.86,5.5-3.61,8.56-3.93,5.38-.56,11.48-.38,16.13,2.73a11.86,11.86,0,0,1,5.28,9,12.93,12.93,0,0,1-3.44,9.83c-3.45,3.44-8.8,4.55-13.37,5.65-5.09,1.22-10.37,2.19-15.14,4.42-1.61.76-4.09,2.13-2.3,4s4.69,3,6.94,4.31c2.81,1.63,5.82,3.51,7.59,6.31,2.31,3.64,1.14,8-.89,11.56a7.08,7.08,0,0,1-8.16,4.17,19.27,19.27,0,0,1-4.56-1.13,27.27,27.27,0,0,1-5.68-3.51c-3.75-2.77-7.51-5-12.36-4.76a19.47,19.47,0,0,0-13.28,6.25c-2.94,3.13-5.07,7.08-8.39,9.84a6.21,6.21,0,0,1-4.93,1.64,6.08,6.08,0,0,1-4.28-2.62c-2.22-3.22-2.32-7.69-2.23-11.44A113.68,113.68,0,0,1,76.46,134c.14-1.17.57-3.06-.82-3.64s-3.68.27-5.08.81c-5.35,2.08-10.38,4.72-16.32,3.75-4.56-.75-8.92-3.92-7.71-9.05,2.29-9.66,13.73-10.08,21-13.86,1.11-.58,2.52-1.37,2.93-2.65a3.47,3.47,0,0,0-1.49-3.7c-1.55-1.07-3.68-1.22-5.5-1.28a76.61,76.61,0,0,0-8.43.4c-3.08.24-6.16.49-9.25.43a12.44,12.44,0,0,1-5.62-1.34,16,16,0,0,1-7.5-8.16,9.64,9.64,0,0,1,1.9-10.57c3.67-3.73,9.43-5.18,14.52-4.5a31.6,31.6,0,0,1,13,5.39c3.12,2,6,4.55,9.18,6.45a6.83,6.83,0,0,0,3.31,1.16c1.55,0,3.63-.59,4.37-2.08s.38-3.52.06-5.08a50.12,50.12,0,0,0-2.32-7.57c-1.45-3.9-3.4-7.7-4.29-11.79a29.15,29.15,0,0,1-.5-10.69c.38-2.33,1.64-6.37,4.32-6.73,2.08-.28,4.41.61,6.25,1.47a16.12,16.12,0,0,1,5.31,4c5.11,5.89,5.62,14.69,4.89,22.1A37.41,37.41,0,0,1,92,82c-.13.58,2.69.18,2.85-.52Z"/></svg>