<svg id="圖層_1" data-name="圖層 1" xmlns="http://www.w3.org/2000/svg" viewBox="0 0 195.03 205.5"><defs><style>.cls-1{fill:#fff;}</style></defs><title>icon</title><path class="cls-1" d="M190,102.76a102,102,0,0,1-17.2,56.81,93.59,93.59,0,0,1-43.37,35,88.87,88.87,0,0,1-57.38,2.23,93,93,0,0,1-46-31.85A100.54,100.54,0,0,1,5.27,110.31,102.67,102.67,0,0,1,18.34,52.15a95.37,95.37,0,0,1,41.23-38.6,88.43,88.43,0,0,1,56.35-6.63,91.86,91.86,0,0,1,48.57,28.39A100.32,100.32,0,0,1,189,87.78a102.88,102.88,0,0,1,1.06,15c0,3.22,5,3.22,5,0A106.72,106.72,0,0,0,177,43.15a99.37,99.37,0,0,0-46.17-37,93.37,93.37,0,0,0-60-2.23,97.56,97.56,0,0,0-48.4,33.4A107.26,107.26,0,0,0,14,155.89,100,100,0,0,0,57.2,196.36a94.11,94.11,0,0,0,60.05,7.06A96.45,96.45,0,0,0,168,173.75a104.93,104.93,0,0,0,25.81-55,112.25,112.25,0,0,0,1.19-16C195,99.54,190,99.54,190,102.76Z"/><path class="cls-1" d="M140.93,150.62H55.27a15.27,15.27,0,0,1-15.76-15.31c-.14-11.73,0-23.47,0-35.21V80.36c0-1.18,0-2.37,0-3.56A15.31,15.31,0,0,1,46.22,64c3.82-2.53,8-2.27,12.3-2.27H137.7c.84,0,1.68,0,2.52,0a15.29,15.29,0,0,1,13.16,8.38c2.19,4.34,1.67,9.38,1.67,14.1v44.18c0,4.66.55,9.8-1.59,14.1a14.36,14.36,0,0,1-12.53,8.09c-.64,0-1.59.18-1.9.84s.24,1.06.84,1.06c9.85-.11,18.08-7.62,18.1-17.64V78.06a19.55,19.55,0,0,0-1.22-7.64,17,17,0,0,0-12.08-10.13c-3.4-.73-7.11-.42-10.57-.42H55.24a19.52,19.52,0,0,0-9.16,2,17.5,17.5,0,0,0-9.33,12.92,34.23,34.23,0,0,0-.16,4.75V131.7c0,1.29,0,2.58,0,3.87a16.91,16.91,0,0,0,6.12,13,17.58,17.58,0,0,0,11.13,3.91h86c.65,0,1.59-.18,1.9-.85S141.53,150.62,140.93,150.62Z"/><path class="cls-1" d="M75.32,123.1h-21l.5.17V75.49l-2.4,1h21l-.5-.18v47.78c0,.41,2.9,0,2.9-.78V75.49c0-.16-.45-.18-.51-.18h-21c-.49,0-2.4.24-2.4,1v47.78c0,.16.45.18.5.18h21a3.68,3.68,0,0,0,2-.55C75.86,123.38,76,123.1,75.32,123.1Z"/><path class="cls-1" d="M142.38,134.34H83.65l.84.27V92l-2,1h58.73l-.84-.26v42.62c0,.6,2.89.15,2.89-.77V92c0-.3-.69-.27-.84-.27H83.65c-.53,0-2.06.31-2.06,1.05v42.62c0,.3.7.27.85.27h58.73c.52,0,1.64-.22,1.93-.72S142.83,134.34,142.38,134.34Z"/><path class="cls-1" d="M52.44,130.48H74a3.78,3.78,0,0,0,2-.55c.41-.29.44-.62-.17-.62H54.32a3.81,3.81,0,0,0-2,.55c-.41.29-.43.62.17.62Z"/><path class="cls-1" d="M52.85,136.33H74.43a2.12,2.12,0,0,0,1.9-.84c.3-.59-.26-1-.84-1H53.91a2.1,2.1,0,0,0-1.9.84c-.29.59.26,1,.84,1Z"/><path class="cls-1" d="M82.91,76.78h34.25c1.64,0,2.24-2.09.27-2.09H83.18c-1.65,0-2.24,2.09-.27,2.09Z"/><path class="cls-1" d="M140.81,80a4.24,4.24,0,0,1-.68,2.3,3,3,0,0,1-.69.75c.17-.14,0,0,0,0l-.3.2c-.22.14,0,0,0,0-.12.06-.26.1-.38.17s.34-.08,0,0c0,0-.4.09-.16.05s-.16,0-.17,0h-.2c.21,0-.21,0-.19,0s-.38,0-.21,0-.23,0-.21,0l-.35-.1A4,4,0,0,1,135.47,82a4.05,4.05,0,0,1-.38-4.41,2.87,2.87,0,0,1,.61-.81l.22-.2c.16-.15-.25.15.06,0l.2-.14.21-.12c-.15.08-.16.08,0,0l.22-.1c.36-.15-.3.06.08,0l.24-.06c-.32.08-.06,0,0,0l.32,0c-.27,0,0,0,.07,0l.32,0c-.23,0,.12,0,.16,0a3.8,3.8,0,0,1,2,1.29,4.1,4.1,0,0,1,.95,2.5c0,.64.73.77,1.27.69s1.64-.39,1.63-1a5.22,5.22,0,0,0-3.61-5,6.8,6.8,0,0,0-7,1.89,5.19,5.19,0,0,0-.62,6.16,5.8,5.8,0,0,0,6.14,2.38c2.66-.51,5.08-2.62,5.12-5.46,0-.66-.74-.77-1.27-.7S140.81,79.3,140.81,80Z"/></svg>