<svg id="圖層_1" data-name="圖層 1" xmlns="http://www.w3.org/2000/svg" viewBox="0 0 194.03 204.55"><defs><style>.cls-1{fill:none;stroke:#fff;stroke-width:4px;}.cls-2{fill:#fff;}</style></defs><title>icon</title><ellipse class="cls-1" cx="97.02" cy="102.27" rx="95.02" ry="100.27"/><path class="cls-2" d="M147.88,65.14a5,5,0,0,0-.45-5.29A9.47,9.47,0,0,0,144,57.34c-3.28-1.81-7.62-1.27-9.66,2.12-1.45,2.43-2.78,4.95-4.17,7.42l-14.5,25.76c-.38.67-.77,1.34-1.14,2a7.3,7.3,0,0,0-.41.9A3,3,0,0,0,114,96c-.18.55-.36,1.11-.53,1.67-.48,1.52-.94,3-1.33,4.59-.52,2.07-1.72,5.83-.14,7.72,2,2.42,6,0,7.8-1.36a51.53,51.53,0,0,0,6.69-6.27,14.88,14.88,0,0,0,2-2.85l5.71-10.14L147.6,65.63l.28-.49c.53-.94-.48-1.68-1.32-1.78a2.94,2.94,0,0,0-2.83,1.32L133.2,83.39l-6.84,12.16a28.74,28.74,0,0,1-3.53,5.64A45,45,0,0,1,117,106.7a13.57,13.57,0,0,1-1.31.88l-.44.23c.26-.14,0,0-.13,0-.28.09.46,0,.06,0,.26,0,.72.27.87.27-.14,0-.14-.33-.11-.16a5,5,0,0,1-.14-1.33,33.25,33.25,0,0,1,1.79-8.17,18.69,18.69,0,0,1,1.38-3.68c4-7.18,8-14.3,12.07-21.44l6.18-11A25.55,25.55,0,0,1,138.5,60c.95-1.36,2.86.15,3.89.8a3,3,0,0,1,1.34,3.9c-.48,1,.44,1.68,1.31,1.78A2.92,2.92,0,0,0,147.88,65.14Z"/><path class="cls-2" d="M135.25,86.4c9,.28,18,.42,26.94.84,1.53.07,3.29.56,3.87,2.15s-.37,3.58-1.38,5c-.52.72-1.07,1.42-1.6,2.13l-9.28,12.34q-9.37,12.48-18.77,25c-3.06,4.06-8.34,7.09-13.51,6.94l-8.25-.25-35.65-1.11-31.83-1c-2.34-.07-6.54.4-7.52-2.27-.76-2,.66-4,1.84-5.56L43,126.73,64.59,98c1.82-2.42,3.53-5,5.51-7.28a17.44,17.44,0,0,1,11.71-5.94c1.09,0,2.19,0,3.28.08l33.75,1.05,2.86.09a3.49,3.49,0,0,0,2.87-1.19c.51-.87-.44-1.24-1.17-1.26l-30.7-1c-4-.13-8.39-.69-12.37.07a25.2,25.2,0,0,0-13.66,7.28,36.5,36.5,0,0,0-2.33,2.93l-21.2,28.18c-2.43,3.23-4.87,6.46-7.29,9.69-1.49,2-3,4.74-1.63,7.17,1.28,2.27,4.17,2.73,6.54,2.81,8.56.29,17.12.53,25.68.79l38.87,1.2,12.4.38,2.35.08a24,24,0,0,0,12.08-3.35,22.25,22.25,0,0,0,6.94-6l2.66-3.54,10.6-14.1L163.8,101l3.76-5a21.85,21.85,0,0,0,2.23-3.26c.85-1.69,1.26-3.71.16-5.39-1.2-1.84-3.62-2.38-5.67-2.52-1.5-.09-3-.09-4.5-.14l-18.72-.58L137,84a3.49,3.49,0,0,0-2.87,1.19c-.51.87.43,1.24,1.17,1.26Z"/><path class="cls-2" d="M52.78,139.81l13.38-19,21.25-30.2,4.88-6.94c.61-.86-.52-1.35-1.21-1.4a3.42,3.42,0,0,0-2.86,1.22l-13.39,19L53.59,132.69l-4.88,6.94c-.61.86.52,1.35,1.21,1.4a3.39,3.39,0,0,0,2.86-1.22Z"/><path class="cls-2" d="M50.84,112.48l14.83.46,2.13.07a5.65,5.65,0,0,0,3.08-.82c.66-.44.61-.94-.26-1l-14.83-.46-2.14-.06a5.56,5.56,0,0,0-3.07.82c-.67.44-.61.94.26,1Z"/><path class="cls-2" d="M59.09,102.74l14.83.46,2.14.07a5.29,5.29,0,0,0,3.07-.83c.65-.44.61-1-.28-1L64,100.94l-2.13-.06a5.29,5.29,0,0,0-3.08.82c-.65.45-.61,1,.28,1Z"/><path class="cls-2" d="M51.55,106.06l-4.48-.14a3.55,3.55,0,0,1-3.62-2.85c-.47-2.06,1-3.5,2.18-5l12.46-15.7L69.67,67.83a14.41,14.41,0,0,1,6.87-5.2c2.41-.75,5-.54,7.5-.54h20.18c.94,0,2.35-.29,2.86-1.21s-.41-1.38-1.2-1.38H87.23c-2.49,0-5-.13-7.51.09a19.44,19.44,0,0,0-13.51,7.32Q60.83,73.65,55.49,80.4L42,97.44c-1.13,1.43-2.65,2.93-2.93,4.8a5.41,5.41,0,0,0,3.53,5.82c1.71.63,3.71.47,5.5.53l1.83.06a3.35,3.35,0,0,0,2.87-1.22c.48-.88-.42-1.35-1.21-1.37Z"/></svg>