<svg id="圖層_1" data-name="圖層 1" xmlns="http://www.w3.org/2000/svg" viewBox="0 0 195.03 205.5"><defs><style>.cls-1{fill:#fff;}</style></defs><title>icon</title><path class="cls-1" d="M190,102.76a102,102,0,0,1-17.2,56.81,93.59,93.59,0,0,1-43.37,35,88.87,88.87,0,0,1-57.38,2.23,93,93,0,0,1-46-31.85A100.54,100.54,0,0,1,5.27,110.31,102.67,102.67,0,0,1,18.34,52.15a95.37,95.37,0,0,1,41.23-38.6,88.43,88.43,0,0,1,56.35-6.63,91.86,91.86,0,0,1,48.57,28.39A100.32,100.32,0,0,1,189,87.78a102.88,102.88,0,0,1,1.06,15c0,3.22,5,3.22,5,0A106.72,106.72,0,0,0,177,43.15a99.37,99.37,0,0,0-46.17-37,93.37,93.37,0,0,0-60-2.23,97.56,97.56,0,0,0-48.4,33.4A107.26,107.26,0,0,0,14,155.89,100,100,0,0,0,57.2,196.36a94.11,94.11,0,0,0,60.05,7.06A96.45,96.45,0,0,0,168,173.75a104.93,104.93,0,0,0,25.81-55,112.25,112.25,0,0,0,1.19-16C195,99.54,190,99.54,190,102.76Z"/><path class="cls-1" d="M121.82,165.35H77.65A26.35,26.35,0,0,1,71.9,165a15.35,15.35,0,0,1-11.23-10.58A18.77,18.77,0,0,1,60,149V57.19c0-.81,0-1.62,0-2.43a15.23,15.23,0,0,1,6.09-12.18,13.38,13.38,0,0,1,8.21-2.41h29.5c5.25,0,10.5,0,15.76,0A15.41,15.41,0,0,1,135,55.61c.06,9.28,0,18.56,0,27.83V146c0,3.73.25,7.46-1.31,11a13.62,13.62,0,0,1-12.18,8.41c-.51,0-1.66.22-1.94.71s.26.54.7.53c9.44-.1,17.6-7.18,17.62-16.84,0-3.35,0-6.7,0-10.05v-82c0-1,0-1.94,0-2.91a15.92,15.92,0,0,0-4.76-11.34,16.42,16.42,0,0,0-11.52-4.55H76a21.13,21.13,0,0,0-9.55,2,16.46,16.46,0,0,0-9.12,12.34,66.74,66.74,0,0,0-.15,8.83v83c0,3.3-.31,6.89.63,10.09A16,16,0,0,0,68.88,166a24,24,0,0,0,6.44.58H120A3.29,3.29,0,0,0,122,166C122.37,165.73,122.48,165.35,121.82,165.35Z"/><path class="cls-1" d="M118.43,139.86H79.36a7.22,7.22,0,0,1-5.18-1.74,7.32,7.32,0,0,1-2.26-5.58c0-7.46,0-14.91,0-22.36V63.06c0-2.28-.32-5,.69-7.1a5.23,5.23,0,0,1,4.48-3.2h37c1,0,2,0,3,0a6.89,6.89,0,0,1,6.42,6.93c.13,6.22,0,12.45,0,18.67v34.89c0,6.78.15,13.58,0,20.37-.06,2.92-2,6.16-5.16,6.24-.54,0-1.64.21-1.93.73s.26.63.72.62c4.16-.1,8.55-2.68,9.18-7.08a16.93,16.93,0,0,0,.09-2.36V60.44c0-.51,0-1,0-1.53a7.73,7.73,0,0,0-7.55-7.49c-3.14-.12-6.3,0-9.43,0H78.93c-5.08,0-9.87,3.05-9.91,8.52,0,2.51,0,5,0,7.54v63c0,3.08-.21,6.09,2.21,8.51,2.9,2.9,7.42,2.27,11.17,2.27h34.82c.53,0,1.64-.22,1.93-.73S118.89,139.86,118.43,139.86Z"/><path class="cls-1" d="M101.72,153.15a5.2,5.2,0,0,1-.86,2.92,4.41,4.41,0,0,1-.9,1,3.33,3.33,0,0,1-1,.56c-.26.1.33-.07-.13,0l-.25.06-.26,0c.06,0-.44,0-.28,0a4,4,0,0,1-1.32-.21,4.85,4.85,0,0,1-2.31-1.65,5.17,5.17,0,0,1-.47-5.63,4.62,4.62,0,0,1,.8-1.06,4,4,0,0,1,1-.72l.28-.11c.41-.18-.25,0,.19-.07l.29-.07c-.24.05.08,0,.14,0a3.56,3.56,0,0,1,1.25.06,5.09,5.09,0,0,1,3.84,4.86c0,.66.74.76,1.28.7s1.64-.4,1.63-1a6.34,6.34,0,0,0-4.35-6A7.94,7.94,0,0,0,92,149a6.3,6.3,0,0,0-.73,7.45,6.91,6.91,0,0,0,7.31,2.9c3.18-.61,6-3.17,6-6.55,0-.66-.74-.76-1.27-.7S101.73,152.51,101.72,153.15Z"/></svg>